<svg viewBox="0 0 31 57" xmlns="http://www.w3.org/2000/svg"><path d="m29.8437808 0h-7.4525275c-8.3616459 0-13.76023885 5.51252937-13.76023885 14.0379796v6.4610415h-7.46375112c-.65097378 0-1.16726333.5244715-1.16726333 1.1605325v9.3735318c0 .636061.51628955 1.1605325 1.16726333 1.1605325h.01122369 7.45252743v23.6458496c0 .64722.52751323 1.1605325 1.16726333 1.1605325h9.75338302c.6509738 0 1.1672633-.5244714 1.1672633-1.1605325v-23.6458496h8.7432514c.6397501 0 1.1672633-.5133125 1.1672633-1.1493736 0 0 0 0 0-.0111589v-9.3846907c0-.3124511-.1234606-.6025842-.3479343-.8257635-.2244737-.2231794-.5162895-.345928-.8305527-.345928h-8.7095803v-5.4790525c0-2.644675.6285264-3.972592 4.0854217-3.972592h5.0057639c.6397501 0 1.1674429-.5133124 1.1674429-1.16053247v-8.70399373c.0110441-.63606108-.5052454-1.1605325-1.1562192-1.1605325z" fill="currentColor"/></svg>
