<svg viewBox="0 0 61 61" xmlns="http://www.w3.org/2000/svg"><g fill="currentColor"><path d="m60.8449638 17.9342216c-.1429313-3.2411749-.6671679-5.4694536-1.4181391-7.4002869-.7747155-2.04953225-1.9665855-3.88447577-3.5281214-5.4098714-1.5256867-1.54913542-3.3730852-2.7528806-5.3992642-3.51534575-1.9423758-.75082792-4.1594402-1.27496455-7.4012335-1.41786859-3.2660031-.15500661-4.3028369-.19084896-12.5863334-.19084896-8.2834966 0-9.3203304.03584235-12.5742286.17874639-3.2417933.14290405-5.4704972.66750601-7.4012335 1.4178686-2.05038874.77456771-3.88568238 1.96621033-5.41136907 3.52744831-1.54943101 1.52539563-2.75294046 3.37244171-3.51601652 5.3982342-.75097119 1.9424705-1.27520782 4.1586466-1.41813914 7.3998215-.15503618 3.26538-.19088537 4.302016-.19088537 12.5839323 0 8.2819162.03584919 9.3185523.1787805 12.5718297.14293132 3.2411749.66763337 5.4694535 1.41860456 7.4002869.77471551 2.0495322 1.97822496 3.8844757 3.52765597 5.4098714 1.52568669 1.5491354 3.3730852 2.7528806 5.39926417 3.5153457 1.9428412.7508279 4.1594402 1.2749646 7.4016989 1.4178686 3.2534328.1433694 4.2907321.1787464 12.5742286.1787464 8.2834966 0 9.3203304-.035377 12.5742286-.1787464 3.2417933-.142904 5.4704971-.6670407 7.4012335-1.4178686 4.100312-1.5849777 7.3421054-4.8261526 8.9273856-8.9252171.7505057-1.9424706 1.2752078-4.159112 1.4181391-7.4002869.1429313-3.2532774.1787805-4.2899135.1787805-12.5718297 0-8.2819163-.0121049-9.3185523-.1550362-12.5718297zm-5.4942415 24.9053309c-.1312918 2.9791066-.6317841 4.5878241-1.0489386 5.6603025-1.0251944 2.6574561-3.1347113 4.7665705-5.7926744 5.7915693-1.0726831.4170749-2.693347.9174717-5.6613826 1.0482732-3.218049.1433694-4.1831844.1787464-12.3237497.1787464-8.1405652 0-9.1178055-.035377-12.3242151-.1787464-2.979675-.1308015-4.5886995-.6311983-5.6613825-1.0482732-1.3226965-.4887596-2.5266713-1.2633273-3.50391167-2.2762236-1.0130895-.9891564-1.78780501-2.1807991-2.27665788-3.5032432-.4171545-1.0724783-.91764682-2.6932984-1.04847327-5.6603025-.14339674-3.2174351-.1787805-4.1828517-.1787805-12.3218639 0-8.1390123.03538376-9.1160661.1787805-12.3213987.13082645-2.9791065.63131877-4.5878241 1.04847327-5.6603025.48885287-1.3229094 1.26356838-2.5261893 2.28876275-3.50370849.9888798-1.01289623 2.1807498-1.78746394 3.5039116-2.27575821 1.0726831-.41707492 2.6938124-.91747176 5.6613826-1.04873858 3.218049-.14290405 4.1836499-.1787464 12.3237497-.1787464 8.1526701 0 9.1178055.03584235 12.3242151.1787464 2.979675.13126682 4.5886995.63166366 5.6613825 1.04873858 1.3226965.48829427 2.5266713 1.26286198 3.5039117 2.27575821 1.0130895.98915649 1.787805 2.18079909 2.2766579 3.50370849.4171545 1.0724784.9176468 2.6928332 1.0489386 5.6603025.1429314 3.2174351.1787805 4.1823864.1787805 12.3213987 0 8.1390122-.0358491 9.0923263-.1787805 12.3097614z"/><path d="m30.5 15c-8.5571383 0-15.5 6.9424014-15.5 15.5s6.9428617 15.5 15.5 15.5c8.5575986 0 15.5-6.9424014 15.5-15.5s-6.9424014-15.5-15.5-15.5zm0 25.5544647c-5.5514349 0-10.0544647-4.5025696-10.0544647-10.0544647s4.5030298-10.0544647 10.0544647-10.0544647c5.5518951 0 10.0544647 4.5025696 10.0544647 10.0544647s-4.5025696 10.0544647-10.0544647 10.0544647z"/><path d="m51 14c0 2.2089324-1.7909535 4-4.0002544 4-2.2087921 0-3.9997456-1.7910676-3.9997456-4 0-2.2094414 1.7909535-4 3.9997456-4 2.2093009 0 4.0002544 1.7905586 4.0002544 4z"/></g></svg>
