<svg viewBox="0 0 74 69" xmlns="http://www.w3.org/2000/svg"><path d="m32.2789834 0c7.3803264 0 13.1205802.56473214 17.1695092 1.69419643 4.1001813 1.078125 7.7903445 2.92633928 11.2242464 5.49330357 4.4076949 3.3370536 7.7390922 7.2901786 9.9941919 11.9107143 2.2550997 4.5691964 3.3826496 9.703125 3.3313973 15.4017857 0 6.1607143-1.3838112 11.7053571-4.1514336 16.7366071-2.7676223 4.9799108-6.7140469 9.1897322-11.941778 12.5267858-2.9726315 1.8482142-6.2015242 3.1830357-9.7891829 4.0044642-3.5876586.8214286-8.8666421 1.2321429-15.8882025 1.2321429h-5.2277312v-13.3995536h11.4805077c7.7903444 0 14.1456255-6.3660714 14.1456255-14.1696428 0-7.2388393-5.4839925-13.2455357-12.505553-14.0669643l10.40421-12.1160714h-23.4735379v-15.2477679zm-10.2789834 0v69h-18.35933806v-53.7295082h-3.64066194l3.64066194-15.2704918zm11.2944162 37 1.0152285 4.1186441 1.0152284-4.1186441h4.0609137l1.2182741 4.8813559v-4.8813559h6.3959391l-.5076142 1.9830508v.0508475h-3.7055838v3.2542373h2.9441625l-.5076142 1.9830508h-2.4873097v1.7288136h-3.5532995l-.4568528-1.7288136h-2.7918781l-.4568528 1.7288136h-2.3857868l-.4568528-1.7288136h-2.7918782l-.4568528 1.7288136h-2.3857868l2.2335025-9zm4.213198 1.9830508h-.2538071l-.8121827 3.2542373h1.8781726zm-6.142132 0h-.2538071l-.8121827 3.2542373h1.8781726z" fill="currentColor"/></svg>
