<svg viewBox="0 0 136.1 85.04" xmlns="http://www.w3.org/2000/svg"><g stroke="currentColor" stroke-miterlimit="10"><g fill="none"><path d="m135.6 13.61v-13.11h-39.12v45.41l-18.34-45.41h-13.38l-14.31 35.34-14.28-35.34h-13.38l-21.35 52.71h14.73l2.91-7.71h20.74l2.91 7.71h15.41l2.91-7.71h20.74l2.91 7.71h25.23v-18.05h21.55v-12.23h-21.55v-9.32zm-111.93 19.66 5.81-15.47 5.75 15.47zm42 0 5.78-15.47 5.75 15.47z"/><path d="m109.81.41.12 52.7"/><path d="m100.5.62v52.71"/><path d="m105.15.5v52.71"/><path d="m24.92 6.03-19.39 47.15"/><path d="m27.15 11.93-15.83 41.02"/><path d="m17.66 37.09h19.14"/><path d="m16.02 41.25h22.55"/><path d="m22.79.5 20.54 53.04"/><path d="m27.35.41 18.08 47.81"/><path d="m31.91.41 16.02 42.36"/><path d="m135.6 5.18h-25.73"/><path d="m135.07 9.5h-24.66"/><path d="m130.94 27.16h-20.53"/><path d="m130.94 31.02h-20.53"/><path d="m96.48.41v52.8"/><path d="m67.43 6.12-18.88 47.09"/><path d="m69.66 12.03-15.83 41.02"/><path d="m60.17 37.18h19.14"/><path d="m58.54 41.34h21.78"/><path d="m65.3.59 19.4 52.62"/><path d="m69.86.5 19.49 52.83"/><path d="m74.42.5 19.98 52.83"/><path d="m64.74.62-21.33 52.59"/></g><path d="m18.81 62.71v21.83h-1.65v-9.93h-15v9.93h-1.66v-21.83h1.65v10.29h15v-10.29z" fill="currentColor"/><path d="m39.74 62.71 10 21.83h-1.8l-2.24-4.93h-13.7l-2.21 4.93h-1.86l10.07-21.83zm-7 15.34h12.26l-6.16-13.55z" fill="currentColor"/><path d="m61.46 84.54-7-21.83h1.79l6.16 19.37 6.39-19.37h1.62l6.41 19.37 6.17-19.37h1.8l-7 21.83h-1.8l-6.39-19.17-6.33 19.17z" fill="currentColor"/><path d="m101.32 62.71 10 21.83h-1.82l-2.24-4.93h-13.69l-2.21 4.93h-1.85l10-21.83zm-7 15.34h12.26l-6.16-13.55z" fill="currentColor"/><path d="m122.11 62.71v21.83h-1.65v-21.83z" fill="currentColor"/><path d="m135.6 62.71v21.83h-1.6v-21.83z" fill="currentColor"/></g></svg>
