<svg viewBox="0 0 50 28" xmlns="http://www.w3.org/2000/svg"><path d="m52.4067148 41.5276208c.4772428 0 .7954047.3267092.7954047.816773v.5445153c0 .3811608-.053027.5445154-.2386214.8167731l-1.6173227 2.1236098c-.0265135.0272258-.0265135.0272258-.0265135.0544515v.0272258h1.908971v1.0890307h-3.0225375v-.8984503c0-.3811608.053027-.5445154.2386214-.816773l1.6173227-2.1236099c.0198851-.0204193.0248564-.0255241.0260992-.0497721l.0004143-.4402917c0-.0272258 0-.0272258-.0265135-.0272258h-.7158641c-.0265135 0-.0265135 0-.0265135.0272258v.6261927h-1.14008v-.9529019c0-.4900638.3181619-.816773.7954046-.816773zm3.8444557.0272258c.4772427 0 .7954046.3267092.7954046.816773v3.8116074c0 .4900638-.3181619.816773-.7954046.816773h-1.4317283c-.4772428 0-.7954046-.3267092-.7954046-.816773v-3.8116074c0-.4900638.3181618-.816773.7954046-.816773zm3.7914286-.0272258c.4772428 0 .7954047.3267092.7954047.816773v.5445153c0 .3811608-.053027.5445154-.2386214.8167731l-1.6173227 2.1236098c-.0265135.0272258-.0265135.0272258-.0265135.0544515v.0272258h1.908971v1.0890307h-3.049051v-.8984503c0-.3811608.053027-.5445154.2386214-.816773l1.6173227-2.1236099c.0198851-.0204193.0248564-.0255241.0260992-.0497721l.0004143-.4402917c0-.0272258 0-.0272258-.0265135-.0272258h-.7158641c-.0265135 0-.0265135 0-.0265135.0272258v.6261927h-1.1135665v-.9529019c0-.4900638.3181619-.816773.7954046-.816773zm3.8179422.0272258c.4772428 0 .7954046.3267092.7954046.816773v3.8116074c.0265135.4900638-.3181618.816773-.7954046.816773h-1.4317283c-.4772428 0-.7954046-.3267092-.7954046-.816773v-3.8116074c0-.4900638.3181618-.816773.7954046-.816773zm-7.9805596 1.0890306h-.7158642c-.0265135 0-.0265135 0-.0265135.0272258l.0265135 3.2398663h.7158642c.0265134 0 .0265134 0 .0265134-.0272258v-3.2126405c0-.0272258 0-.0272258-.0265134-.0272258zm7.6358843 0h-.7158642c-.0265135 0-.0265135 0-.0265135.0272258l.0265135 3.2398663h.7158642c.0265134 0 .0265134 0 .0265134-.0272258v-3.2126405c0-.0272258 0-.0272258-.0265134-.0272258zm-23.0667339-16.7438468c.5037563 4.1110908-4.0565635 10.5091461-9.5448553 11.1897903-1.6173228.1905804-1.5642958.0544516-1.9354846.1089031-.1060539 0-.1855944.0544515-.2386214.2178061-.1060539.3267092-.927972 2.2325129-1.6438362 4.2744455-1.1665934 2.5319963-1.8559441 2.6408994-3.1816184 2.804254-.6363237.0816773-5.5413189.0816773-5.7534268-1.7424491-.0265134-.2994834.053027-.5445153.4772428-.9801276 2.0415385-2.0147068 10.7644758-12.3060468 10.7114488-12.6872075 0-.0272258-.053027-.0544516-.1325674-.0544516-.980999.1361289-8.219181 1.987481-10.5258544 2.2869645-1.3256744.1633546-1.5908092-.0544516-1.6703497-.6261927-.0265135-.0816773-.0265135-.3811607.2386214-1.0618049.2651349-.7350957 1.5642957-3.621027 2.4392408-4.7100577 0 0 .3181618-.4083865 1.0605395-.4900638.8484316-.1089031 2.9695105-.2994835 3.6058342-.3811608 2.4657543-.2994834 7.0791011-1.0890307 9.9690712-1.4701914 4.0565635-.5172896 5.8594807 1.0618049 6.1246155 3.3215436zm21.6880325-6.670313c.1590809.0272258.2386214.1633546.2651349.2994835.0265135.1905803-.0265135.4083865-.1325674.5445153-1.1665935 1.633546-4.9845356 6.8336676-6.5488314 9.3384382-.6893506 1.1434822-2.7043757 4.0566393-2.5718082 5.254573.053027.3811608.3181618.5989669.9014585.5172896.646845-.0916169 1.5376287-.8769043 2.2461284-1.7722982.7599241-3.0007277 3.9229174-6.6013278 8.4918339-7.1849792 1.4052149-.1633546 2.0945655.2994834 2.2006195 1.0890307.1855944 1.5790945-2.0150251 4.4105743-5.9125077 6.0713461.2916484.5172896.9279721.816773 2.068052.6806442 1.087053-.1361289 2.3331869-1.0073534 3.2876724-2.3958676 0 0 .0795405-.0816773.2121079-.108903.159081-.0272258.2916484.1361288.3181619.2722576 0 .0544516 0 .1361289-.0265135.1905804-1.1665934 1.9602553-4.1095905 5.1728958-6.9995606 5.5268308-2.3862139.2994834-3.6058343-.7623215-3.7914287-2.341416-.0201348-.1698363-.0289576-.3456007-.0267519-.5262633-1.5698679 1.8189415-4.1332203 3.870962-6.389512 4.1472903-1.6438362.2178062-2.3066733-.3539349-2.4392408-1.3068368-.049661-.4079613.0072605-.8888864.1413235-1.4136825-1.4540731 1.7087205-3.5957929 3.4962747-5.7091558 3.7550985-2.3862138.2994834-3.6058342-.7623215-3.7914286-2.341416-.3711889-3.1309632 3.102078-8.2766332 8.6433968-8.9845032 1.4052148-.1633546 2.0945655.2994834 2.2006194 1.0890307.1855944 1.5790945-2.015025 4.4105743-5.9125076 6.0713461.2916483.5172896.927972.816773 2.068052.6806442 1.0870529-.1633546 2.3597003-1.0345792 3.2876724-2.3958675 0 0 .0136298-.0139961.0390088-.0323319 1.1696763-2.4359439 3.0160213-4.9886157 3.4607715-5.603402.5302697-.7078699 5.6473727-8.0588271 6.151129-8.6577939 0 0 .3977023-.5989669 1.087053-.6806442.927972-.0272258 2.2536464-.0272258 3.1816184.2178061zm-30.808672 9.5017928c-.2386214.0272257-.5037563.1361288-.4772428.3811607.0265135.1361289.1060539.3267092.1855944.816773.1325674 1.0073534-1.2991609 4.9550897-1.5642957 5.6085081-.053027.0816773-.0795405.1633546-.053027.2178061.0265135.2722577.4507293.2178062.6098102.2178062 2.9429971-.3811608 4.7194007-3.158189 4.4807793-5.1728958-.1590809-1.2796111-1.1400799-2.2597387-3.1816184-2.0691583zm13.4953649 1.2523853c-.6628372.0816773-2.4127273 3.1037374-2.2006194 4.9823154l.0265135.1905803c1.5908092-1.1434822 2.7574026-3.6754754 2.6513487-4.7100577-.053027-.2994834-.1855944-.4900638-.4772428-.462838zm18.2147657-2.2869645c-.6628372.0816773-2.4127273 3.1037375-2.2006194 4.9823154l.0265134.1905804c1.5908093-1.1434822 2.7574027-3.6754786 2.6513488-4.7100577-.053027-.3267092-.1855945-.4900638-.4772428-.4628381z" fill="currentColor" transform="translate(-17 -19)"/></svg>
